PathFileType	4	(X/Y/Z)	C:\Users\Biomechanik\SynologyDrive\AlexP\Athlete_03\Athlete_3_25_03_31\Walking_04\marker_experimental.trc
DataRate	CameraRate	NumFrames	NumMarkers	Units	OrigDataRate	OrigDataStartFrame	OrigNumFrames
200.000000	200.000000	4	53	mm	200.000000	347	463
Frame#	Time	GLAB			RFHD			LFHD			C7			T6			SPINMOL			SPINM2			SPINM3			T12			BELTOL			BELT2			BELT3			SACROL			SACR2			SACR3			LTHOL			LTH2			LTH3			LSHAOL			LSHA2			LSHA3			LHEE			LTOE			LM5			RTH2			RSHAOL			RSHA2			RSHA3			RHEE			RTOE			RM5			STRN			XIPH			LACR			LUAOL			LUA2			LUA3			LLAOL			LLA2			LLA3			LWRR			LWRU			RACR			RUAOL			RUA2			RUA3			RLAOL			RLA2			RLA3			RWRR			RWRU			RTH3			RTHOL			
		X1	Y1	Z1	X2	Y2	Z2	X3	Y3	Z3	X4	Y4	Z4	X5	Y5	Z5	X6	Y6	Z6	X7	Y7	Z7	X8	Y8	Z8	X9	Y9	Z9	X10	Y10	Z10	X11	Y11	Z11	X12	Y12	Z12	X13	Y13	Z13	X14	Y14	Z14	X15	Y15	Z15	X16	Y16	Z16	X17	Y17	Z17	X18	Y18	Z18	X19	Y19	Z19	X20	Y20	Z20	X21	Y21	Z21	X22	Y22	Z22	X23	Y23	Z23	X24	Y24	Z24	X25	Y25	Z25	X26	Y26	Z26	X27	Y27	Z27	X28	Y28	Z28	X29	Y29	Z29	X30	Y30	Z30	X31	Y31	Z31	X32	Y32	Z32	X33	Y33	Z33	X34	Y34	Z34	X35	Y35	Z35	X36	Y36	Z36	X37	Y37	Z37	X38	Y38	Z38	X39	Y39	Z39	X40	Y40	Z40	X41	Y41	Z41	X42	Y42	Z42	X43	Y43	Z43	X44	Y44	Z44	X45	Y45	Z45	X46	Y46	Z46	X47	Y47	Z47	X48	Y48	Z48	X49	Y49	Z49	X50	Y50	Z50	X51	Y51	Z51	X52	Y52	Z52	X53	Y53	Z53	

348	1.735	1587.851684570312	1572.806884765625	240.0990142822268	1535.292114257812	1600.116577148438	302.8950500488284	1546.133178710938	1592.815795898438	164.7794952392581	1364.919799804688	1410.447875976562	230.4927368164065	1306.5390625	1242.26904296875	233.3159637451174	1300.090087890625	1201.6728515625	213.5981750488284	1292.645751953125	1195.713500976562	263.1566467285159	1303.678344726562	1137.900756835938	231.8149566650393	1327.317993164062	1071.060546875	236.8047485351565	1297.21142578125	1036.720336914062	218.9328765869143	1294.7548828125	1035.377319335938	269.2832031250002	1291.685180664062	974.7401123046876	241.0264587402346	1308.825805664062	927.1958007812501	213.2601165771487	1303.92626953125	926.0632324218751	264.5320739746096	1291.157348632812	867.3413085937501	236.5645446777346	1505.122802734375	648.9461669921876	68.72319793701199	1480.704956054688	577.6414794921876	92.79315948486355	1527.409057617188	594.0429077148439	82.87540435791044	1613.043212890625	315.1304626464845	84.1018066406253	1579.788696289062	242.6811065673829	86.95243072509794	1627.691040039062	255.5943450927736	94.35870361328155	1598.113037109375	61.52919006347666	188.8891296386722	1817.463012695312	57.57474517822277	191.0263061523441	1775.160888671875	32.28274536132823	94.85496520996126	1358.068359375	614.8312988281251	445.0249633789065	1181.071899414062	384.2551574707032	421.2748718261721	1166.373168945312	307.1859436035157	416.645202636719	1136.657836914062	344.1770324707032	403.0513305664065	993.1790161132812	195.3008117675782	295.8043518066408	1120.568481445312	43.67526626586921	278.2474670410159	1085.4501953125	45.52877426147467	388.3313598632815	1536.772705078125	1310.588500976562	237.2593994140628	1551.7109375	1167.151245117188	246.1443023681643	1442.728637695312	1363.239013671875	58.31974411010768	1411.26904296875	1206.24267578125	-35.23264312744115	1387.673217773438	1146.530151367188	-51.21622085571263	1436.91943359375	1145.38525390625	-35.98650360107396	1385.29443359375	946.8463745117189	-80.94458007812474	1336.663940429688	887.7849731445314	-59.3175659179685	1379.830688476562	885.6181030273439	-83.76080322265599	1381.107543945312	782.2613525390626	-93.66860961914037	1432.101684570312	770.1538696289064	-34.14554595947239	1446.741333007812	1373.713989257812	402.3511962890628	1446.462036132812	1231.329345703125	507.4153747558597	1479.5830078125	1175.125	517.727722167969	1430.09033203125	1172.64404296875	532.311950683594	1542.817260742188	971.9446411132814	560.1145019531252	1621.0546875	960.7938842773439	569.9024047851566	1587.225830078125	928.8229370117189	552.4312133789066	1666.388671875	884.3718872070314	545.6809692382816	1696.130249023438	906.5411987304689	473.4755554199222	1317.144653320312	620.2983398437501	417.2341003417971	1318.798095703125	681.3486938476564	425.7635803222659	
349	1.74	1594.923095703125	1573.575805664062	238.9732360839847	1542.308715820312	1600.936279296875	301.7529602050784	1553.360961914062	1593.638427734375	163.6455993652347	1371.73095703125	1411.133911132812	229.2217559814456	1313.653564453125	1242.938720703125	232.4259490966799	1307.240966796875	1202.335815429688	212.7506408691409	1299.755737304688	1196.483032226562	262.2921142578127	1310.801391601562	1138.61962890625	231.1498870849612	1334.62841796875	1071.782348632812	236.2504882812503	1304.459838867188	1038.182495117188	218.6638793945315	1302.10009765625	1036.638427734375	268.923767089844	1298.886108398438	975.7990722656251	240.3261413574221	1316.158935546875	927.7810668945314	212.8415527343753	1311.45654296875	926.3796386718751	264.1433410644534	1299.171020507812	867.6966552734376	236.0118255615237	1512.906982421875	649.7500610351564	67.90628814697294	1488.602172851562	577.9234619140626	90.23239135742215	1535.285888671875	594.8850097656251	81.86440277099638	1617.520874023438	314.947967529297	83.58455657959014	1583.30126953125	243.1417846679688	87.70691680908232	1631.725219726562	255.2404022216798	93.8665771484378	1598.770263671875	62.23212814331065	189.1662750244143	1818.133911132812	55.90270614624035	192.4955444335941	1775.267333984375	32.29772567749034	94.59048461914095	1368.522216796875	614.6551513671876	445.3622741699221	1192.067993164062	386.0500793457032	422.0549011230471	1176.14697265625	309.1385498046876	417.4104003906252	1147.101196289062	346.7832641601563	403.4841308593752	1002.529174804688	201.7095489501954	296.3213806152345	1123.172241210938	44.45547866821296	277.8836059570315	1087.011962890625	46.9575157165528	387.9052429199221	1543.814819335938	1311.745727539062	236.0386047363284	1559.072998046875	1168.34033203125	244.9507446289065	1449.802001953125	1364.13525390625	57.09900283813503	1419.102783203125	1206.947143554688	-36.32603073120091	1395.642700195312	1147.14990234375	-52.17001342773412	1445.01806640625	1146.111328125	-36.97161483764622	1394.274169921875	947.3238525390626	-81.5521621704099	1345.968505859375	888.0194702148439	-60.0724487304685	1389.267333984375	886.0224609375001	-84.2700576782224	1391.1103515625	782.6755371093751	-93.96005249023412	1441.943603515625	771.0097045898439	-34.17728424072239	1453.772705078125	1374.939697265625	401.0190124511722	1452.703002929688	1232.615478515625	506.0058898925784	1485.831787109375	1175.886840820312	516.3076171875002	1436.345336914062	1173.67822265625	530.8955688476565	1547.333374023438	972.1026611328126	558.9517822265628	1625.502319335938	960.2098999023439	569.1611328125003	1591.329711914062	928.5476074218751	551.6629638671878	1670.011962890625	883.0507202148439	545.5567626953128	1700.317138671875	904.4839477539064	473.382507324219	1327.704345703125	619.3474731445314	417.1473083496096	1328.58837890625	680.5344238281251	425.150329589844	
350	1.745	1601.952514648438	1574.344482421875	237.9038238525393	1549.32666015625	1601.780883789062	300.6369628906253	1560.477416992188	1594.461547851562	162.5229034423831	1378.493286132812	1411.88916015625	227.9805755615237	1320.730590820312	1243.576171875	231.4868927001956	1314.254516601562	1202.970825195312	211.9345397949221	1306.913940429688	1197.2041015625	261.5234985351565	1318.00537109375	1139.324096679688	230.3638305664065	1341.910034179688	1072.606689453125	235.4716949462893	1311.8818359375	1039.3525390625	218.220642089844	1309.40380859375	1037.802734375	268.4722290039065	1306.1201171875	977.2661743164064	239.9980316162112	1323.264892578125	928.4288330078126	212.4530487060549	1318.991088867188	926.7662353515626	263.692321777344	1307.193237304688	867.9690551757814	235.3646392822268	1520.757568359375	650.6153564453126	67.03579711914091	1496.37646484375	578.1839599609376	87.40290069580105	1543.097534179688	595.6100463867189	80.68835449218778	1621.68505859375	314.6560058593751	83.58270263671905	1586.60791015625	243.2819061279298	90.10848999023467	1635.170532226562	254.9449310302736	94.1580810546878	1599.4091796875	62.85052108764658	189.4857330322268	1818.818115234375	54.37783813476574	193.3070678710941	1775.261840820312	32.472812652588	94.8320236206058	1379.095825195312	614.3392333984376	445.884704589844	1203.530883789062	387.7342529296876	423.0265197753909	1186.260009765625	310.9886474609376	418.7763671875002	1158.120483398438	349.1747131347657	404.0563964843752	1012.280090332031	208.4320373535157	296.6558837890627	1126.261962890625	45.53112411499031	277.7958068847659	1089.254760742188	49.1102142333985	387.6363220214846	1550.805541992188	1312.90625	234.8524932861331	1566.444458007812	1169.50830078125	243.8506774902347	1456.816284179688	1365.043823242188	55.98178100585965	1426.953735351562	1207.70751953125	-37.39531326293919	1403.53515625	1147.867553710938	-52.67941665649388	1453.038330078125	1146.966552734375	-37.83486938476535	1403.395629882812	947.7976074218751	-82.27674865722631	1355.352172851562	888.3016357421876	-60.83542251586889	1398.811645507812	886.3489379882814	-84.91218566894506	1401.179809570312	783.1812744140626	-94.21808624267553	1452.0166015625	771.9291381835939	-34.20318222045871	1460.733154296875	1376.1884765625	399.7564392089847	1459.62646484375	1233.412109375	504.8186950683597	1492.16455078125	1176.81103515625	514.9836425781252	1442.945190429688	1174.902099609375	529.3352661132815	1551.70654296875	972.1472778320314	557.9495849609378	1629.619262695312	959.3392944335939	568.7393188476566	1595.224853515625	928.1152343750001	550.9765625000003	1673.455322265625	881.6998291015626	545.5361938476566	1704.36767578125	902.3775024414064	473.320465087891	1338.499145507812	618.2460937500001	417.2542114257815	1338.489135742188	679.6253662109376	424.4425048828127	
351	1.75	1609.003173828125	1575.110595703125	236.8273468017581	1556.3681640625	1602.621826171875	299.4967956542972	1567.610229492188	1595.300659179688	161.4122161865237	1385.2197265625	1412.57666015625	226.8008728027346	1327.774780273438	1244.21826171875	230.6045379638674	1321.292114257812	1203.610717773438	211.0250244140628	1314.021118164062	1197.914916992188	260.6643676757815	1325.177978515625	1139.981567382812	229.5729217529299	1349.124633789062	1073.4423828125	234.5616912841799	1319.220825195312	1040.445678710938	217.7287750244143	1316.630737304688	1038.996337890625	267.9299621582034	1313.223388671875	978.4765625000001	239.3791351318362	1329.706665039062	929.2305908203126	211.8162536621096	1326.399780273438	927.1696166992189	263.2340087890627	1314.990356445312	868.3662109375001	234.6231231689455	1528.612182617188	651.1889038085939	65.98461914062528	1503.851196289062	578.6880493164064	84.68312835693386	1550.659423828125	596.2304687500001	79.51862335205107	1625.575805664062	314.270233154297	83.98480987548858	1589.748901367188	243.6310424804688	93.45534515380889	1638.821411132812	254.3301544189454	94.6324234008792	1599.962768554688	63.36061096191416	189.8838806152347	1819.323974609375	52.94045639038097	194.0135650634769	1775.475219726562	32.43241119384776	94.90330505371126	1389.722045898438	613.9884643554689	446.508483886719	1215.553466796875	389.3373718261719	423.9770812988284	1196.731323242188	312.9443054199219	420.4883728027346	1169.726684570312	351.3947753906251	404.6792907714846	1022.5390625	215.2833862304688	296.9877014160158	1129.7578125	46.62138366699226	277.9955139160159	1092.16064453125	52.34155654907233	387.5105590820315	1557.79736328125	1314.082763671875	233.7577972412112	1573.780883789062	1170.69287109375	242.8388519287112	1463.812622070312	1366.025146484375	54.85943984985379	1434.728515625	1208.521606445312	-38.44803619384739	1411.757446289062	1148.519409179688	-54.2461433410642	1461.012451171875	1147.864624023438	-38.64932250976535	1412.352294921875	948.5868530273439	-82.75829315185521	1364.790893554688	888.5573730468751	-61.56652832031225	1408.438232421875	886.8555297851564	-85.46614074707006	1411.67333984375	783.5571289062501	-94.50735473632787	1462.142822265625	772.9077148437501	-34.1956596374509	1467.593994140625	1377.401245117188	398.5397644042972	1466.165771484375	1234.603637695312	503.533142089844	1498.367431640625	1177.73095703125	513.6299438476565	1448.901611328125	1176.03466796875	528.2253417968752	1556.129760742188	972.3554687500001	556.8758544921878	1633.714721679688	958.6232910156251	568.1954956054691	1599.095458984375	927.5441894531251	550.0354003906253	1676.859008789062	880.4480590820314	545.5123901367191	1708.288696289062	900.2377319335939	473.3368835449222	1349.253540039062	617.0306396484376	417.5924987792971	1348.8173828125	677.4852294921876	424.0520935058596	
